<?xml version="1.0" encoding="UTF-8"?>
<!DOCTYPE svg PUBLIC "-//W3C//DTD SVG 1.1//EN" "http://www.w3.org/Graphics/SVG/1.1/DTD/svg11.dtd">
<!-- Creator: CorelDRAW X7 -->
<svg xmlns="http://www.w3.org/2000/svg" xml:space="preserve" width="382px" height="382px" version="1.1" style="shape-rendering:geometricPrecision; text-rendering:geometricPrecision; image-rendering:optimizeQuality; fill-rule:evenodd; clip-rule:evenodd"
viewBox="0 0 2912 2912"
 xmlns:xlink="http://www.w3.org/1999/xlink">
 <defs>
  <style type="text/css">
   <![CDATA[
    .str0 {stroke:#332C2B;stroke-width:15.8762}
    .fil0 {fill:#332C2B}
    .fil1 {fill:#E62129;fill-opacity:0.831373}
   ]]>
  </style>
 </defs>
 <g id="Layer_x0020_1">
  <metadata id="CorelCorpID_0Corel-Layer"/>
  <path class="fil0 str0" d="M1263 686l-577 0 0 577 577 0 0 -577zm578 674l0 96 192 0 0 96 192 0 0 -192 -192 0 -192 0zm-193 288l0 96 0 97 96 0 0 96 97 0 0 -96 192 0 0 96 0 288 192 0 0 -192 -96 0 0 -96 -96 0 -192 0 0 96 96 0 0 192 -96 0 0 -192 -97 0 0 192 -192 0 0 -192 0 -96 0 -96 0 -97 -192 0 0 -192 0 -192 -97 0 0 96 -96 0 -192 0 -96 0 0 -96 -193 0 0 192 289 0 0 -96 0 -96 192 0 0 96 0 96 193 0 192 0 192 0 0 96 -96 0zm0 96l289 0 0 -192 -193 0 0 -192 -192 0 0 -190 -96 0 0 0 0 190 0 3 0 93 96 0 0 96 0 192 0 0 96 0zm385 -96l0 96 96 0 0 97 96 0 0 -193 -96 0 -96 0zm-289 289l-96 0 0 -96 -96 0 -192 0 0 96 96 0 0 96 0 192 -96 0 0 -192 96 0 96 0 192 0 0 -96zm-192 -962l0 -193 -96 0 0 -96 -96 0c0,160 0,319 0,478l96 0c0,-63 0,-126 0,-189l96 0zm289 -96l192 0 0 192 -192 0 0 -192zm-193 -193l0 577 577 0 0 -577 -577 0zm481 481l-385 0 0 -385 385 0 0 385zm-1250 674l192 0 0 192 -192 0 0 -192zm-193 384l577 0 0 -577 -577 0 0 577zm96 -481l385 0 0 385 -385 0 0 -385zm97 -865l192 0 0 192 -192 0 0 -192zm288 288l-385 0 0 -385 385 0 0 385z"/>
  <path class="fil0 str0" d="M1456 8c799,0 1448,648 1448,1448 0,799 -649,1448 -1448,1448 -800,0 -1448,-649 -1448,-1448 0,-800 648,-1448 1448,-1448zm0 155c714,0 1292,579 1292,1293 0,714 -578,1292 -1292,1292 -714,0 -1293,-578 -1293,-1292 0,-714 579,-1293 1293,-1293z"/>
  <polygon class="fil1" points="397,1410 2515,1410 2515,1501 397,1501 "/>
 </g>
</svg>
