<?xml version="1.0" encoding="UTF-8"?>
<!DOCTYPE svg PUBLIC "-//W3C//DTD SVG 1.1//EN" "http://www.w3.org/Graphics/SVG/1.1/DTD/svg11.dtd">
<!-- Creator: CorelDRAW X7 -->
<svg xmlns="http://www.w3.org/2000/svg" xml:space="preserve" width="400px" height="400px" version="1.1" style="shape-rendering:geometricPrecision; text-rendering:geometricPrecision; image-rendering:optimizeQuality; fill-rule:evenodd; clip-rule:evenodd"
viewBox="0 0 3514 3514"
 xmlns:xlink="http://www.w3.org/1999/xlink">
 <defs>
  <style type="text/css">
   <![CDATA[
    .str0 {stroke:#332C2B;stroke-width:18.3017}
    .fil0 {fill:none}
    .fil1 {fill:#332C2B}
   ]]>
  </style>
 </defs>
 <g id="Layer_x0020_1">
  <metadata id="CorelCorpID_0Corel-Layer"/>
  <rect class="fil0" width="3514" height="3514"/>
  <path class="fil1 str0" d="M1757 88c922,0 1669,747 1669,1669 0,922 -747,1669 -1669,1669 -922,0 -1669,-747 -1669,-1669 0,-922 747,-1669 1669,-1669zm0 179c823,0 1490,667 1490,1490 0,823 -667,1490 -1490,1490 -823,0 -1490,-667 -1490,-1490 0,-823 667,-1490 1490,-1490z"/>
  <path class="fil1 str0" d="M1757 870l0 0c106,0 194,87 194,194l0 499 499 0c106,0 194,87 194,194l0 0c0,106 -88,194 -194,194l-499 0 0 499c0,106 -88,194 -194,194l0 0c-107,0 -194,-88 -194,-194l0 -499 -499 0c-107,0 -194,-88 -194,-194l0 0c0,-107 87,-194 194,-194l499 0 0 -499c0,-107 87,-194 194,-194z"/>
 </g>
</svg>
