<?xml version="1.0" encoding="UTF-8"?>
<!DOCTYPE svg PUBLIC "-//W3C//DTD SVG 1.1//EN" "http://www.w3.org/Graphics/SVG/1.1/DTD/svg11.dtd">
<!-- Creator: CorelDRAW 2018 (64-Bit Evaluation Version) -->
<svg xmlns="http://www.w3.org/2000/svg" xml:space="preserve" width="32.1732mm" height="32.1732mm" version="1.1" style="shape-rendering:geometricPrecision; text-rendering:geometricPrecision; image-rendering:optimizeQuality; fill-rule:evenodd; clip-rule:evenodd"
viewBox="0 0 27.92 27.92"
 xmlns:xlink="http://www.w3.org/1999/xlink">
 <defs>
  <style type="text/css">
   <![CDATA[
    .fil0 {fill:black}
   ]]>
  </style>
 </defs>
 <g id="Layer_x0020_1">
  <metadata id="CorelCorpID_0Corel-Layer"/>
  <path class="fil0" d="M12.11 15.08c0,0.18 0.58,0.45 0.75,0.54 1.7,0.92 4.04,2.51 5.71,3.39l0 -0c0.16,0.09 0.34,0.15 0.54,0.15 0.58,0 1.06,-0.47 1.06,-1.06 0,-0.39 -0.22,-0.74 -0.53,-0.92l0.01 -0.02c-0.2,-0.05 -0.5,-0.26 -0.69,-0.38 -0.51,-0.3 -4.54,-2.78 -4.76,-2.83l0 -5.6c0.01,-0.06 0.02,-0.13 0.02,-0.19 0,-0.58 -0.47,-1.05 -1.05,-1.05 -0.58,0 -1.05,0.47 -1.05,1.05l0 0.01 -0 0 0 6.91zm-10.94 1.48c0.34,0 0.62,0.23 0.71,0.53l0.02 -0c1.39,5.36 6.27,9.32 12.07,9.32 6.88,0 12.46,-5.58 12.46,-12.46 0,-6.88 -5.58,-12.46 -12.46,-12.46 -4.71,0 -8.81,2.62 -10.93,6.47l0.88 0.42c0.36,0.18 0.42,0.69 0.1,0.95l-2.73 1.83c-0.37,0.29 -0.9,0.04 -0.92,-0.43l-0.36 -3.29c-0,-0.41 0.43,-0.7 0.81,-0.52l0.87 0.41c2.36,-4.36 6.98,-7.33 12.29,-7.33 7.71,0 13.96,6.25 13.96,13.96 0,7.71 -6.25,13.96 -13.96,13.96 -6.49,0 -11.94,-4.43 -13.51,-10.42 -0,-0.01 -0,-0.01 -0,-0.02 -0.01,-0.06 -0.02,-0.12 -0.02,-0.18 0,-0.41 0.33,-0.74 0.74,-0.74z"/>
 </g>
</svg>
