<?xml version="1.0" encoding="UTF-8"?>
<!DOCTYPE svg PUBLIC "-//W3C//DTD SVG 1.1//EN" "http://www.w3.org/Graphics/SVG/1.1/DTD/svg11.dtd">
<!-- Creator: CorelDRAW 2018 (64-Bit Evaluation Version) -->
<svg xmlns="http://www.w3.org/2000/svg" xml:space="preserve" width="33.8667mm" height="33.8668mm" version="1.1" style="shape-rendering:geometricPrecision; text-rendering:geometricPrecision; image-rendering:optimizeQuality; fill-rule:evenodd; clip-rule:evenodd"
viewBox="0 0 33.3 33.3"
 xmlns:xlink="http://www.w3.org/1999/xlink">
 <defs>
  <style type="text/css">
   <![CDATA[
    .str0 {stroke:#332C2B;stroke-width:0.17;stroke-miterlimit:22.9256}
    .fil0 {fill:none}
    .fil1 {fill:black}
   ]]>
  </style>
 </defs>
 <g id="Layer_x0020_1">
  <metadata id="CorelCorpID_0Corel-Layer"/>
  <rect class="fil0" x="-0" y="0" width="33.3" height="33.3"/>
  <g id="_2742086828528">
   <g>
    <path class="fil1" d="M18.07 21.05c0.34,-0 0.49,0.04 0.77,-0.11 0.29,-0.6 -0.32,-0.51 -0.77,-0.51l0 0.62zm3.64 1.18c0.37,-0.45 0.14,-1.15 -0.32,-0.97 -0.23,0.09 -0.25,0.36 -0.23,0.59 0.03,0.4 0.15,0.43 0.55,0.37zm-1.41 1.49l0 -3.07c0.13,0 0.47,-0.02 0.58,0.01 0.26,0.07 0.17,0.03 0.26,0.24 1.95,-1.5 2.29,3.03 0.03,1.8l-0.01 1.02 -0.86 -0zm-0.77 -3.75c0.67,0.43 0.34,1.27 -0.32,1.54 0.49,0.43 0.58,0.69 0.89,1.36l-1.06 -0.01c-0.46,-0.89 -0.43,-1.14 -0.98,-1.23l-0.01 1.24 -0.94 -0.04 -0 -2.97c0.52,-0.14 2.04,-0.13 2.41,0.11z"/>
    <path class="fil1" d="M25.14 10.41c-0.61,-0.26 -1.28,-0.43 -1.93,-0.58 -1.29,-0.3 -2.63,-0.29 -3.92,0.01 -0.19,0.04 -0.38,0.1 -0.57,0.16 0.14,0.17 0.23,0.34 0.26,0.52 0.02,0.16 0.03,0.33 0.04,0.5 1.81,-0.57 3.76,-0.42 5.53,0.32 -1.63,0.97 -3.78,0.92 -5.54,0.19 -0.01,0.2 -0.03,0.4 -0.04,0.6 -0.02,0.18 -0.03,0.35 -0.04,0.51 2.03,0.75 4.41,0.63 6.26,-0.48 -0.01,0.29 -0.01,0.57 -0.02,0.86 -1.93,1.07 -4.26,1.2 -6.26,0.32 -0.01,0.37 -0.01,0.75 -0.02,1.13 2.01,0.75 4.29,0.65 6.25,-0.26 -0.01,0.33 -0.01,0.67 -0.01,1 -2,0.95 -4.19,0.74 -6.25,0.13 -0,0.2 -0,0.39 -0.01,0.59 0.06,-0.01 0.13,-0.02 0.19,-0.03 0.25,-0.04 0.51,-0.05 0.76,-0.05 1.15,0 2.24,0.38 3.15,1.02 0.73,-0.07 1.44,-0.23 2.15,-0.51 -0,0.26 -0,0.51 -0,0.77 -0.38,0.25 -0.77,0.45 -1.17,0.61 0.24,0.27 0.45,0.56 0.64,0.87 0.18,-0.08 0.35,-0.16 0.53,-0.26 -0,0.36 -0,0.73 -0,1.09 0,0.03 -0.03,0.06 -0.07,0.1 0.12,0.32 0.22,0.65 0.29,1 0.22,-0.14 0.43,-0.28 0.62,-0.43 0.12,-0.09 0.17,-0.2 0.18,-0.31 0.02,-0.05 0.03,-0.1 0.03,-0.16 0,-2.19 0,-4.37 0.05,-6.56 0.01,-0.56 0.14,-1.24 0.05,-1.8 -0.06,-0.38 -0.83,-0.74 -1.13,-0.86z"/>
    <path class="fil1" d="M14.37 22.12c-0.01,0 -0.02,0.01 -0.04,0.01 -0.42,0.08 -0.84,0.12 -1.27,0.14 -0.1,0 -0.21,0.01 -0.31,0.01 -0.56,0 -1.12,-0.06 -1.67,-0.17 -0.47,-0.1 -0.92,-0.25 -1.36,-0.45 -0.18,-0.08 -1.3,-0.57 -1.3,-0.79 0,-0.45 -0,-0.91 -0.01,-1.36 1.43,0.7 2.96,1.08 4.49,1.08 0.52,0 1.03,-0.05 1.54,-0.13 0.1,-0.51 0.26,-1.01 0.48,-1.47 -0.67,0.19 -1.36,0.29 -2.06,0.29 -1.47,0 -2.95,-0.41 -4.32,-1.17 -0.05,-0.03 -0.1,-0.05 -0.14,-0.06 -0,-0.43 -0,-0.86 -0.01,-1.3 1.64,0.56 3.33,0.93 5.01,0.93 0.91,0 1.82,-0.11 2.72,-0.35 0.26,-0.25 0.55,-0.47 0.85,-0.66 0.45,-0.28 0.93,-0.5 1.46,-0.64 0,-0.27 0,-0.54 0.01,-0.82 0,-0.3 0.01,-0.6 0.01,-0.91 0.01,-0.39 0.01,-0.77 0.02,-1.16 0,-0.1 0,-0.19 0.01,-0.29 0,-0.12 0.01,-0.25 0.02,-0.38 0.03,-0.37 0.07,-0.76 0.08,-1.13 0,-0.06 0,-0.11 0,-0.17 0,-0.2 -0.01,-0.39 -0.04,-0.58 -0.02,-0.15 -0.13,-0.29 -0.28,-0.43 -0.33,-0.3 -0.86,-0.55 -1.11,-0.65 -0.76,-0.32 -1.58,-0.54 -2.38,-0.73 -0.78,-0.18 -1.58,-0.27 -2.38,-0.27 -0.82,0 -1.65,0.1 -2.46,0.28 -0.91,0.21 -1.82,0.59 -2.64,1.05 -0.26,0.15 -0.35,0.39 -0.31,0.62 -0.01,0.05 -0.01,0.09 -0.01,0.15 0.12,3.5 0.13,7 0.13,10.5 0,0.08 0.01,0.14 0.03,0.21 0.01,0.14 0.07,0.28 0.22,0.39 1.52,1.21 3.56,1.9 5.55,1.9 0.58,0 1.15,-0.06 1.71,-0.18 -0.11,-0.33 -0.19,-0.67 -0.24,-1.02 -0.01,-0.1 -0.02,-0.19 -0.03,-0.29zm-1.93 -12.3c1.36,0 2.72,0.29 4.01,0.85 -1.05,0.64 -2.27,0.93 -3.51,0.93 -1.42,0 -2.85,-0.38 -4.07,-1.05 1.15,-0.49 2.36,-0.72 3.57,-0.72zm-4.11 1.93c1.36,0.75 2.93,1.14 4.49,1.14 1.43,0 2.85,-0.33 4.09,-1.02 0.11,-0.06 0.22,-0.12 0.33,-0.18 -0.01,0.36 -0.02,0.72 -0.02,1.09 -0.09,0.05 -0.18,0.1 -0.27,0.14 -1.25,0.65 -2.63,0.99 -4.01,0.99 -1.56,0 -3.12,-0.43 -4.5,-1.3 -0.03,-0.02 -0.05,-0.03 -0.08,-0.04 -0.01,-0.27 -0.01,-0.54 -0.02,-0.81zm0.05 2.35c1.41,0.76 2.98,1.13 4.54,1.13 1.38,0 2.76,-0.29 4.04,-0.86 0.07,-0.03 0.14,-0.06 0.21,-0.09 -0.01,0.42 -0.01,0.84 -0.01,1.26 -0.06,0.03 -0.12,0.05 -0.18,0.08 -1.15,0.52 -2.34,0.74 -3.54,0.74 -1.7,0 -3.42,-0.43 -5.05,-1.02 -0,-0.41 -0.01,-0.82 -0.01,-1.23z"/>
    <path class="fil1" d="M24.87 20.8c-0.04,-0.16 -0.08,-0.32 -0.13,-0.47 -0.05,-0.17 -0.12,-0.34 -0.18,-0.5 -0.15,-0.36 -0.33,-0.7 -0.53,-1.01 -0.21,-0.32 -0.46,-0.61 -0.72,-0.88 -0.44,-0.44 -0.94,-0.8 -1.49,-1.05 -0.59,-0.28 -1.23,-0.43 -1.89,-0.43 -0.23,0 -0.46,0.02 -0.7,0.05 -0.08,0.01 -0.16,0.03 -0.24,0.04 -0.04,0.01 -0.08,0.02 -0.11,0.03 -0.07,0.02 -0.14,0.04 -0.21,0.05 -0.07,0.02 -0.14,0.04 -0.21,0.07 -0.14,0.05 -0.27,0.1 -0.41,0.15 -0.31,0.14 -0.61,0.3 -0.89,0.49 -0.05,0.04 -0.1,0.07 -0.15,0.11 -0.02,0.02 -0.04,0.03 -0.06,0.05 -0.07,0.06 -0.14,0.12 -0.21,0.18 -0.04,0.03 -0.08,0.06 -0.11,0.1 -0.18,0.16 -0.34,0.34 -0.5,0.52 -0.1,0.12 -0.19,0.24 -0.28,0.36 -0.35,0.5 -0.63,1.07 -0.79,1.66 -0.02,0.08 -0.04,0.16 -0.06,0.24 -0.02,0.08 -0.03,0.15 -0.05,0.23 -0,0 -0,0 -0,0 -0.05,0.25 -0.08,0.51 -0.08,0.77 -0,0.07 -0,0.15 -0,0.22 0,0.07 0,0.15 0.01,0.22 0.01,0.15 0.02,0.31 0.04,0.46 0.04,0.29 0.11,0.58 0.2,0.85 0.02,0.07 0.04,0.14 0.07,0.2 0.02,0.07 0.05,0.13 0.08,0.2 0.78,1.96 2.64,3.31 4.73,3.31 0.23,0 0.46,-0.02 0.69,-0.05 1.16,-0.17 2.74,-1.12 3.44,-2.09 0.8,-1.09 1.08,-2.47 0.81,-3.89 -0.01,-0.07 -0.03,-0.14 -0.05,-0.2zm-8.64 -0.64c0.04,-0.1 0.08,-0.19 0.13,-0.29 0.17,-0.35 0.39,-0.68 0.65,-0.97 0.4,-0.45 0.88,-0.82 1.44,-1.06 0.07,-0.03 0.14,-0.05 0.21,-0.08 0.07,-0.03 0.14,-0.05 0.21,-0.07 0.06,-0.02 0.11,-0.03 0.17,-0.04 0.06,-0.01 0.11,-0.03 0.17,-0.04 0.24,-0.05 0.48,-0.07 0.72,-0.07 0.74,0 1.41,0.24 1.98,0.63 0.38,0.26 0.72,0.59 1,0.95 0.27,0.35 0.5,0.74 0.67,1.14 0.13,0.32 0.23,0.64 0.29,0.96 0,0.01 0,0.03 0.01,0.04 0.2,1.11 -0.02,2.18 -0.63,3.02 -0.54,0.74 -1.85,1.54 -2.73,1.66 -0.18,0.03 -0.36,0.04 -0.54,0.04 -1.64,0 -3.1,-1.07 -3.73,-2.61 -0.03,-0.07 -0.05,-0.13 -0.08,-0.2 -0.02,-0.07 -0.05,-0.14 -0.07,-0.2 -0.06,-0.21 -0.11,-0.42 -0.14,-0.64 -0.03,-0.23 -0.04,-0.47 -0.04,-0.7 0,-0.08 0.01,-0.16 0.01,-0.24 0.01,-0.08 0.01,-0.17 0.03,-0.25 0.04,-0.24 0.09,-0.47 0.17,-0.7 0.03,-0.09 0.06,-0.18 0.1,-0.27z"/>
   </g>
   <path class="fil1 str0" d="M16.65 0.83c8.74,0 15.82,7.08 15.82,15.82 0,8.74 -7.08,15.82 -15.82,15.82 -8.74,0 -15.82,-7.08 -15.82,-15.82 0,-8.74 7.08,-15.82 15.82,-15.82zm0 1.69c7.8,0 14.12,6.32 14.12,14.12 0,7.8 -6.32,14.12 -14.12,14.12 -7.8,0 -14.12,-6.32 -14.12,-14.12 0,-7.8 6.32,-14.12 14.12,-14.12z"/>
  </g>
 </g>
</svg>
